<svg version="1.2" xmlns="http://www.w3.org/2000/svg" viewBox="0 0 1500 1000" width="1500" height="1000">
	<title>2844297-ai</title>
	<defs>
		<clipPath clipPathUnits="userSpaceOnUse" id="cp1">
			<path d="m1500 1000h-1500v-1000h1500z"/>
		</clipPath>
		<linearGradient id="g1" x1="1083.3" y1="-303.7" x2="1083.3" y2="658.3" gradientUnits="userSpaceOnUse">
			<stop offset="0" stop-color="#3d176b"/>
			<stop offset=".716" stop-color="#4392e1"/>
			<stop offset="1" stop-color="#00ffff"/>
		</linearGradient>
		<linearGradient id="g2" x1="345" y1="289.2" x2="224.6" y2="407" gradientUnits="userSpaceOnUse">
			<stop offset="0" stop-color="#1b1450" stop-opacity="0"/>
			<stop offset="1" stop-color="#247ab2" stop-opacity="1"/>
		</linearGradient>
		<linearGradient id="g3" x1="1051.2" y1="705.2" x2="1051.2" y2="459.1" gradientUnits="userSpaceOnUse">
			<stop offset="0" stop-color="#6474d8"/>
			<stop offset="1" stop-color="#00ffff"/>
		</linearGradient>
		<linearGradient id="g4" x1="280.1" y1="743.2" x2="306.2" y2="498.5" gradientUnits="userSpaceOnUse">
			<stop offset="0" stop-color="#6474d8"/>
			<stop offset="1" stop-color="#00ffff"/>
		</linearGradient>
		<linearGradient id="g5" x1="920.8" y1="459.3" x2="920.8" y2="692.6" gradientUnits="userSpaceOnUse">
			<stop offset="0" stop-color="#3d176b"/>
			<stop offset=".716" stop-color="#4392e1"/>
			<stop offset="1" stop-color="#00ffff"/>
		</linearGradient>
		<linearGradient id="g6" x1="871" y1="531" x2="871" y2="846.6" gradientUnits="userSpaceOnUse">
			<stop offset="0" stop-color="#3d176b"/>
			<stop offset=".716" stop-color="#4392e1"/>
			<stop offset="1" stop-color="#00ffff"/>
		</linearGradient>
		<linearGradient id="g7" x1="915.7" y1="616" x2="915.7" y2="1193.8" gradientUnits="userSpaceOnUse">
			<stop offset="0" stop-color="#3d176b"/>
			<stop offset=".716" stop-color="#4392e1"/>
			<stop offset="1" stop-color="#00ffff"/>
		</linearGradient>
		<linearGradient id="g8" x1="1429" y1="147.4" x2="1308.5" y2="265.3" gradientUnits="userSpaceOnUse">
			<stop offset="0" stop-color="#1b1450" stop-opacity="0"/>
			<stop offset="1" stop-color="#247ab2" stop-opacity="1"/>
		</linearGradient>
		<linearGradient id="g9" x1="1145" y1="334.4" x2="1024.5" y2="452.3" gradientUnits="userSpaceOnUse">
			<stop offset="0" stop-color="#1b1450" stop-opacity="0"/>
			<stop offset="1" stop-color="#247ab2" stop-opacity="1"/>
		</linearGradient>
		<linearGradient id="g10" x1="1599.6" y1="372.5" x2="1479.2" y2="490.3" gradientUnits="userSpaceOnUse">
			<stop offset="0" stop-color="#1b1450" stop-opacity="0"/>
			<stop offset="1" stop-color="#247ab2" stop-opacity="1"/>
		</linearGradient>
		<linearGradient id="g11" x1="379.3" y1="129.2" x2="258.9" y2="247.1" gradientUnits="userSpaceOnUse">
			<stop offset="0" stop-color="#1b1450" stop-opacity="0"/>
			<stop offset="1" stop-color="#247ab2" stop-opacity="1"/>
		</linearGradient>
		<linearGradient id="g12" x1="732.9" y1="808.3" x2="732.9" y2="1586.2" gradientUnits="userSpaceOnUse">
			<stop offset="0" stop-color="#3d176b"/>
			<stop offset=".608" stop-color="#4392e1"/>
			<stop offset="1" stop-color="#00ffff"/>
		</linearGradient>
		<linearGradient id="g13" x1="1067.5" y1="883.6" x2="1067.5" y2="1762.7" gradientUnits="userSpaceOnUse">
			<stop offset="0" stop-color="#3d176b"/>
			<stop offset=".608" stop-color="#4392e1"/>
			<stop offset="1" stop-color="#00ffff"/>
		</linearGradient>
	</defs>
	<style>
		tspan { white-space:pre } 
		.s0 { fill: url(#g1) } 
		.s1 { mix-blend-mode: screen;fill: url(#g2) } 
		.s2 { fill: url(#g3) } 
		.s3 { fill: url(#g4) } 
		.s4 { fill: url(#g5) } 
		.s5 { fill: url(#g6) } 
		.s6 { fill: url(#g7) } 
		.s7 { mix-blend-mode: screen;fill: #f9f8f7 } 
		.s8 { mix-blend-mode: screen;fill: url(#g8) } 
		.s9 { mix-blend-mode: screen;fill: url(#g9) } 
		.s10 { mix-blend-mode: screen;fill: url(#g10) } 
		.s11 { mix-blend-mode: screen;fill: url(#g11) } 
		.s12 { fill: url(#g12) } 
		.s13 { fill: url(#g13) } 
	</style>
	<g id="BACKGROUND">
		<g id="&lt;Clip Group&gt;" clip-path="url(#cp1)">
			<path id="&lt;Path&gt;" class="s0" d="m1500 1000h-1500v-1000h1500z"/>
			<path id="&lt;Path&gt;" class="s1" d="m172 334c3-3 113.8-102.9 113.8-102.9 0 0-99.9 110.8-102.9 113.8-3 3-7.9 3-10.9 0-3-3-3-7.9 0-10.9z"/>
			<path id="&lt;Path&gt;" class="s2" d="m1553.9 594c2.3-5.4 3.6-11.4 3.6-17.7 0-8.1-2.1-15.7-5.9-22.3 1.2-4.1 1.9-8.4 1.9-12.9 0-25-20.2-45.2-45.2-45.2-18.6 0-34.5 11.2-41.5 27.2-5.9-8-15.3-13.2-25.9-13.2-16.4 0-29.9 12.3-31.9 28.2q-0.1 0-0.2 0c-7.8 0-14.9 2.8-20.5 7.3-3.6-8.4-12-14.3-21.8-14.3-5.3 0-10.2 1.8-14.2 4.8-11-11.1-26.2-17.9-43.1-17.9q-6.1 0-11.9 1.2c-11.1-15.3-29-25.3-49.4-25.3-28.9 0-53.2 20.2-59.3 47.4-7.8-6.4-17.8-10.2-28.6-10.2-7.6 0-14.8 1.8-21.1 5.2-8.1-12.3-22-20.3-37.7-20.3-14.5 0-27.4 6.8-35.7 17.4-6.4-4.3-14-6.9-22.2-7.3-4.2-12.9-16.3-22.2-30.6-22.2-7.1 0-13.6 2.3-18.9 6.2-8.3-9.6-20.6-15.7-34.4-15.7-24.9 0-45.2 20.2-45.2 45.2q0 0 0 0c-18.3 2.9-33 16.8-37.1 34.7-6.4-3.5-13.8-5.5-21.7-5.5-7.7 0-15 1.9-21.3 5.3-3.3-13.4-15.3-23.3-29.6-23.3-10.7 0-20 5.5-25.5 13.8-7.4-5.4-16.6-8.6-26.5-8.6-10.8 0-20.8 3.9-28.6 10.2-14.2-21.4-38.5-35.5-66.2-35.5-43.8 0-79.4 35.6-79.4 79.4 0 43.9 35.6 79.4 79.4 79.4 32.9 0 61.2-20 73.2-48.5 6.4 3.5 13.8 5.5 21.6 5.5 8.3 0 15.9-2.2 22.6-6 6.6 16.8 22.9 28.8 42.1 28.8 11.3 0 21.5-4.1 29.5-10.9q4.2 0.8 8.7 0.8c8.9 0 17.1-2.5 24.1-6.9 8.3 10.6 21.2 17.5 35.7 17.5 18.6 0 34.6-11.2 41.5-27.2 5.7 2.6 12.1 4.1 18.8 4.1 15.5 0 29.1-7.8 37.3-19.6 4.4 20.4 22.5 35.6 44.1 35.6 17.3 0 32.3-9.6 39.9-23.8 8.3 9.1 20.2 14.8 33.5 14.8 19.7 0 36.4-12.5 42.6-30 5 19.5 22.7 34 43.9 34 13.7 0 25.9-6.1 34.2-15.7 8.3 10.2 21 16.7 35.1 16.7 14.7 0 27.7-7 36-17.8 5.4 2.4 11.5 3.7 17.8 3.7 8.7 0 16.8-2.5 23.7-6.8 6.3 27 30.4 47 59.2 47 14.7 0 28.1-5.1 38.6-13.7 10.8 9.8 25.1 15.8 40.8 15.8 33.6 0 60.9-27.3 60.9-60.9 0-11.7-3.4-22.7-9.2-32z"/>
			<path id="&lt;Path&gt;" class="s3" d="m796.2 644.1c2.8-5.2 4.8-11 5.4-17.2 0.9-8.1-0.4-15.9-3.5-22.8 1.7-4 2.8-8.2 3.3-12.6 2.6-24.9-15.4-47.2-40.2-49.8-18.5-2-35.5 7.5-44.1 22.6-5-8.5-13.8-14.6-24.4-15.8-16.3-1.7-31 9.1-34.7 24.7q-0.1-0.1-0.2-0.1c-7.8-0.8-15.2 1.2-21.2 5.2-2.7-8.8-10.4-15.6-20.1-16.7-5.3-0.5-10.4 0.7-14.6 3.3-9.8-12.1-24.2-20.5-41-22.3q-6.1-0.7-12-0.1c-9.3-16.4-26.2-28.3-46.4-30.4-28.8-3.1-55 14.5-64 40.8-7.1-7.1-16.6-12-27.4-13.2-7.5-0.8-14.9 0.4-21.5 3-6.7-13-19.7-22.5-35.4-24.2-14.3-1.5-27.9 3.9-37.2 13.5-6-4.9-13.3-8.3-21.4-9.6-2.8-13.2-13.8-23.7-28-25.3-7.1-0.7-13.8 0.9-19.5 4.2-7.3-10.5-18.8-17.8-32.5-19.3-24.8-2.7-47.1 15.3-49.8 40.2q0 0 0 0c-18.5 0.9-34.6 13.2-40.5 30.6-6-4.2-13.2-7-21-7.9-7.7-0.8-15.1 0.4-21.8 3.1-1.8-13.6-12.7-24.8-27-26.3-10.6-1.1-20.5 3.3-26.8 11-6.8-6.2-15.5-10.3-25.4-11.3-10.8-1.2-21.1 1.6-29.5 7.1-11.9-22.8-34.6-39.4-62.1-42.4-43.6-4.6-82.7 27-87.3 70.6-4.7 43.6 26.9 82.7 70.5 87.4 32.7 3.5 62.9-13.5 77.9-40.6 6 4.2 13.2 7 20.9 7.8 8.2 0.9 16.1-0.5 23.1-3.6 4.7 17.5 19.8 31.1 38.8 33.1 11.2 1.2 21.9-1.8 30.5-7.7q4.1 1.3 8.6 1.8c8.8 0.9 17.3-0.7 24.7-4.4 7.1 11.5 19.2 19.7 33.6 21.2 18.5 2 35.6-7.5 44.2-22.6 5.4 3.2 11.6 5.3 18.3 6 15.3 1.7 29.7-4.6 39-15.5 2.3 20.8 18.6 37.9 40.2 40.2 17.2 1.8 33.1-6.2 42.2-19.6 7.3 10 18.5 16.9 31.7 18.3 19.6 2.1 37.5-8.6 45.6-25.3 2.9 20 19 36.3 40 38.5 13.6 1.5 26.4-3.3 35.7-12 7.2 11 19 18.9 33.1 20.4 14.6 1.5 28.3-4 37.6-13.9 5.2 2.9 11.1 4.9 17.4 5.6 8.6 0.9 17-0.7 24.3-4.3 3.3 27.5 25.2 50 53.9 53 14.5 1.6 28.4-2.1 39.8-9.6 9.7 10.9 23.3 18.4 38.9 20.1 33.4 3.5 63.4-20.7 66.9-54.1 1.3-11.7-0.9-22.9-5.6-32.8z"/>
			<path id="&lt;Path&gt;" class="s4" d="m-284.1 691.7c2.8-22.5 29.2-53 42.6-70.5 17.4-22.9 37.3-44 59.8-62 38.2-30.5 93.6-26.6 139.5-17.8 30.7 6 60.9 11.3 90.7 21.1 17.9 5.9 36.1 11 54.6 14.9 17.5 3.7 34.9 4.7 52.3 9.8 12.6 3.6 27.2 8.1 39.3 3.9 19.1-6.5 38.3-16.8 57.4-24.4 13.1-6.5 27.7-10.6 41.2-16.3 11.8-5 23.3-10.5 36.3-11.6 34.7-3 61.8 19.5 90.2 34.9 14.7 8 29.3 16.2 44.2 24.2 5.8 3.1 7.9 2.9 15.6 1.1 9.1-2.1 19-3.4 27.8-6.5 12.5-4.4 24.1-11.8 36.8-15.8 15.9-5.1 31.3-10.6 46.9-16.7 50.3-19.4 90.3 18.8 133.3 38.8 19.8 9.1 34 8.2 55 2.8 22.8-5.9 44.3-15.9 66.1-24.7 13.5-5.5 26.3-13.2 40.3-17.6 9.4-2.9 15.6-7.2 24.2-11.6 8-4 17.9-7.5 26.9-8.4 13.5-1.4 21.7 2.3 34.6 6.1 19.3 5.7 42.3 11 58.1 22.1 8.5 6 20.8 9.7 30.4 14.2 32.4 15.6 64.1 29.3 101 20 23.6-6 45.1-19.4 68.3-26.9 12.7-4.1 23.1-7.8 34.4-13.7 8.8-4.6 16.4-4.7 25.7-6.4 6.2-1.1 12.6-3.9 18.5-5.4 13.2-3.5 27.7 1.5 41 3.7 22.6 3.8 45.4 19.1 67.6 25.9 43.4 13.2 90 22.1 134.5 8.8 28.1-8.3 48.6-32.4 75.6-40.5 24.2-7.2 37 11.8 51.4 29.4 51.6 63.3 60.8 156 64.7 235.4 2.7 55.4-12.9 96.7-38.7 145.6-49.3 93.3-113.6 190.8-187.9 266.1-86.2 87.3-202.6 165.2-325.1 184.5-124.8 19.6-242-0.9-363.4-23.2-68.3-12.6-139.8-20.1-209-28.6-85.9-10.7-172.4-27.3-258.7-33.9-75.4-5.7-145.5 11.8-220.2 14.7-119.4 4.7-216.8-26.7-304.2-109.6-91.4-86.8-98.7-201.4-95-320.5 1.4-44.6 15.4-99.2 3.5-143-8-29.6-30.3-54.7-28.1-72.4z"/>
			<path id="&lt;Path&gt;" class="s5" d="m-35.6 619.6c6.4-3.2 15.5-2.8 22.5-5.6 4.2-1.6 7.4-3.8 11.1-6.2 7.8-5 17.2-8.1 25.6-12.4 11.5-5.8 23.6-8.2 35.3-13.2 7.2-3.1 11.8-5.9 19.9-5.9 15.7 0 27.7 9 42.9 11.3 14.1 2.1 30.7 6.7 42.3 14.6 4.5 3 9.2 5.8 13.8 9 13 8.8 30.2 8.3 45.1 11.5 17.6 3.8 34.3 11.6 52.8 9.7 32.4-3.4 68.1-17.4 97.1-30.8 26.5-12.2 51.1-8.1 77.6 2.9 7.4 3.1 13.6 6.8 20.7 10.2 9.9 4.7 17 9.3 28.8 7.4 5-0.9 12.2-4.2 16.5-6.8 3.4-2.1 6.2-5.1 9.9-6.5 5.4-2 11.3-1.4 16.6-3.9 4.2-2 8-5.7 12.3-7 3.3-1 6.9-1.9 10.3-3 4.9-1.6 9.3-3.5 13.9-5.7 3.1-1.5 5.6-3.2 8.4-5.2 7-4.9 14.3-9 21.1-14.1 3.1-2.3 4.4-3 7.6-3.6 4.3-0.9 7.3-2.9 11.2-4.6 9.4-4 18.9-7.4 27.9-11.9 5.7-2.8 12.1-4.1 18.3-4.2 7.5-0.1 14.9-1.7 22.3-2 10.3-0.4 24.3-1.1 34.1 2 8.7 2.8 16.4 6.3 25.8 7.9 11.5 2 29.4 5.2 39.5 11.1 3.5 2.1 6.5 4.2 10.7 5.8 4.4 1.7 6.7 4.2 10.2 6.3 10.6 6.4 23.3 8.1 35.3 10.2 12.5 2.3 24.6 5.3 37.1 7.4 12.2 2.1 25.8 1.5 37.7 4.7 10.5 2.9 19.1 0.9 30 0.9 8.5 0 16.9 1 25.3 1.2 6.9 0.1 15.7 0.3 22.1-2 6.1-2.1 8.3-4 14.9-3.7 12 0.6 24.3-3.4 35.4-7.8 5.9-2.3 11.8-3.3 18-4.5 9.8-1.9 18.9-5.5 28.3-8.1 5.5-1.5 12.2-0.8 17.7-2.2 9.5-2.3 18.4-6.5 28.2-7.7 9.5-1.1 19.2-1.8 28.7-2 23.4-0.6 46.3 4.7 68.7 10.5 10.6 2.7 19.2 9.4 28.5 14.8 10.5 6.1 21.6 11.4 33 15.9 22.5 8.7 46.4 14.3 70.5 15.4 37.8 1.6 74.2-12.6 110.4-21.2 29-6.9 57.9-16 88.1-16 62 0 109 51.3 136.1 99 31.4 55.5 40.9 120.2 38.5 182.2-1.6 41.6-8.7 83.1-21.1 123.1-16.7 53.5-37.4 109-61.9 159.6-21.2 43.9-32.6 72.7-75.8 95.9-39.5 21.1-122.2 28.9-163.4 35.1-77.4 11.7-153.8 15.4-232 10-98.8-6.8-196.3-22.3-295.2-28.7-94.4-6.2-188.4-13.6-282.5-22.5-111.3-10.6-222.4-25.3-334-32.7-105.2-7-197.3-26.4-295.8-58.1-74-23.8-153.3-38.5-205.2-95.3-30.7-33.6-60.2-90.4-63.6-135-1.9-24.9 13.8-48 22.3-70.7 9.8-26 22.9-52.3 40.1-74.8 13.4-17.5 28.1-34.2 44-50.1 30.6-30.7 61.4-53.9 100.5-75 39.1-21.1 79.8-41.3 121.7-57.3 11.9-4.6 24.2-8.8 37.1-9.5 20.2-1.1 39.6 11.1 58 17.7 25.4 9.1 50.9 18 76.9 25.7q3.6 1 7.2 2.2"/>
			<path id="&lt;Path&gt;" class="s6" d="m-64.7 746.5c22.7-0.3 32.4-7.9 45.6-24.9 13.2-17.1 31.2-30.3 51-39 9.1-3.9 18.6-7 27.2-12 6.3-3.6 12-8.2 17.9-12.4 59.5-43.2 142.3-52.8 211.5-30.2 52.8 17.2 100.5 52.5 155.9 56.2 48 3.3 93.8-17.8 138.3-36.1 106.6-43.9 224.2-74.2 336.9-49.9 110.4 23.9 213.7 99.1 325.3 81.9 96.6-14.8 180.2-97.9 277.1-85.1 55 7.3 101.4 45.2 136.2 88.4 46.5 57.7 77.7 127.6 89.7 200.8 7.9 47.7 7.2 98.6-14.2 141.9-35.9 73-120 107.5-198.9 126.9-328 80.7-671.5 5.9-1009.2-0.1-107.6-1.9-216 3.2-322-15.2-106-18.3-211.9-63.2-279.3-147-34-42.2-55.7-106.6-21.1-148.3 8.5-10.2 19.9-18.2 25.9-30 8.1-16-8.6-27.7-3.8-39.5 5.5-13.4 32.5-25 43.4-34.3 15.9-13.6 31.7-27.3 49-39.1 50.7-34.7 107-74.8 169.2-84.5"/>
			<g id="&lt;Group&gt;" style="opacity: .7">
				<path id="&lt;Path&gt;" class="s7" d="m897.1 89.3l1.1 3.2 3.2 1-3.2 1.1-1.1 3.2-1-3.2-3.2-1.1 3.2-1z"/>
				<path id="&lt;Path&gt;" class="s7" d="m799.7 193.2l0.4 1.5 1.4 0.4-1.4 0.5-0.4 1.4-0.5-1.4-1.4-0.5 1.4-0.4z"/>
				<path id="&lt;Path&gt;" class="s7" d="m530.1 59l1 3.2 3.3 1-3.3 1.1-1 3.2-1.1-3.2-3.2-1.1 3.2-1z"/>
				<path id="&lt;Path&gt;" class="s7" d="m161.2 424.3l1.1 3.2 3.2 1.1-3.2 1-1.1 3.2-1-3.2-3.2-1 3.2-1.1z"/>
				<path id="&lt;Path&gt;" class="s7" d="m414.3 246.6l1 3.2 3.2 1.1-3.2 1.1-1 3.2-1.1-3.2-3.2-1.1 3.2-1.1z"/>
				<path id="&lt;Path&gt;" class="s7" d="m1174.3 327.7l1 3.2 3.2 1-3.2 1.1-1 3.2-1.1-3.2-3.2-1.1 3.2-1z"/>
				<path id="&lt;Path&gt;" class="s7" d="m1448.7 134.3l1 3.2 3.2 1-3.2 1.1-1 3.2-1.1-3.2-3.2-1.1 3.2-1z"/>
				<path id="&lt;Path&gt;" class="s7" d="m52.3 190.4l1.1 3.2 3.2 1.1-3.2 1-1.1 3.2-1.1-3.2-3.2-1 3.2-1.1z"/>
				<path id="&lt;Path&gt;" class="s7" d="m1112.9 107.4l0.5 1.4 1.4 0.5-1.4 0.4-0.5 1.5-0.5-1.5-1.4-0.4 1.4-0.5z"/>
				<path id="&lt;Path&gt;" class="s7" d="m1376 402l0.5 1.4 1.4 0.5-1.4 0.5-0.5 1.4-0.4-1.4-1.4-0.5 1.4-0.5z"/>
				<path id="&lt;Path&gt;" class="s7" d="m964.5 489.7l0.4 1.5 1.4 0.4-1.4 0.5-0.4 1.4-0.5-1.4-1.4-0.5 1.4-0.4z"/>
				<path id="&lt;Path&gt;" class="s7" d="m510.1 487.5l0.5 1.4 1.4 0.5-1.4 0.4-0.5 1.4-0.4-1.4-1.4-0.4 1.4-0.5z"/>
				<path id="&lt;Path&gt;" class="s7" d="m256 190.6l0.5 1.4 1.4 0.5-1.4 0.5-0.5 1.4-0.5-1.4-1.4-0.5 1.4-0.5z"/>
			</g>
			<path id="&lt;Path&gt;" class="s8" d="m1256 192.2c3-3 113.7-102.8 113.7-102.8 0 0-99.8 110.7-102.8 113.7-3 3-7.9 3-10.9 0-3-3-3-7.9 0-10.9z"/>
			<path id="&lt;Path&gt;" class="s9" d="m972 379.2c3-3 113.7-102.8 113.7-102.8 0 0-99.8 110.7-102.8 113.7-3 3-7.9 3-10.9 0-3-3-3-7.9 0-10.9z"/>
			<path id="&lt;Path&gt;" class="s10" d="m1426.6 417.3c3-3 113.8-102.9 113.8-102.9 0 0-99.9 110.8-102.9 113.8-3 3-7.9 3-10.9 0-3-3-3-7.9 0-10.9z"/>
			<path id="&lt;Path&gt;" class="s11" d="m206.3 174c3-3 113.8-102.9 113.8-102.9 0 0-99.9 110.8-102.9 113.8-3 3-7.9 3-10.9 0-3-3-3-7.9 0-10.9z"/>
			<path id="&lt;Path&gt;" class="s12" d="m1440.5 1013.1h-1457.6v-204.5l161.4-42.5c5.9-1.5 11.8-1.8 17.7-0.9l161.7 25.2c8.1 1.3 15.9 4.8 23 10.4 7.8 6.2 16.3 9.8 25.1 10.7l111.6 11.9q4.3 0.4 8.6 0l372.8-36.4c5.6-0.5 11.3 0.1 16.8 1.7l134.7 40.9 142.9 43.3c6.3 1.9 12.7 2.3 19.1 1.4l51.6-7.9c12.3-1.9 24.8 1.7 35.7 10.2l136.1 106.2 7.5 5.9z"/>
			<path id="&lt;Path&gt;" class="s13" d="m1565.3 832v181.1h-1065.7l55.9-24.4 13.4-5.9 212.1-92.6q5.1-2.3 9.9-5.5l22.8-15c14.9-10 31.7-12.8 47.9-8.1l20.9 6c11.5 3.4 23.4 2.9 34.8-1.3l99-36.7 40.5-15.1c5.2-1.9 10.5-3 15.8-3.4l108.4-7.4c12.3-0.8 24.2-5.7 34.8-14.4l42.7-34.8c15.2-12.4 32.8-17.1 50-13.4l169.6 37 52.8 45.7z"/>
		</g>
	</g>
</svg>